<?xml version="1.0" encoding="utf-8"?>
<!-- Generator: Adobe Illustrator 17.1.0, SVG Export Plug-In . SVG Version: 6.00 Build 0)  -->
<!DOCTYPE svg PUBLIC "-//W3C//DTD SVG 1.1//EN" "http://www.w3.org/Graphics/SVG/1.1/DTD/svg11.dtd" [
	<!ENTITY st0 "fill:#FFFFFF;">
]>
<svg version="1.1" id="Layer_1" xmlns="http://www.w3.org/2000/svg" xmlns:xlink="http://www.w3.org/1999/xlink" x="0px" y="0px"
	 viewBox="0 0 630 250" style="enable-background:new 0 0 630 250;" xml:space="preserve">
<rect width="630" height="250"/>
<g>
	<path style="&st0;" d="M397.2,24.3c-45.3,0-80.4,75.8-80.4,134.6c0,36.3,16.5,67,40.5,67c40.3,0,81.1-69.5,81.1-132.9
		C438.4,56.6,422.9,24.3,397.2,24.3z M357.3,224c-13.9,0-17.9-12.2-17.9-36.5c0-78.8,29.6-161.7,57.8-161.7c13.2,0,17,21.2,17,42.5
		C414.2,151.1,384.8,224,357.3,224z"/>
	<path style="&st0;" d="M264.1,191.8c-15.7,0-26.9-10.5-40.3-10.5c-6.3,0-11.8,2.6-16.4,6.5c29.9-35,107-64.7,107-123.1
		c0-23.8-16.1-40.3-36.8-40.3c-34.8,0-57.3,32.3-57.3,63c0,20.9,10.5,30.9,20.2,30.9c19,0,35.1-28.9,35.1-44.8
		c0-6.6-2.5-8.1-4.3-8.1c-11.7,0-3.2,51.3-30.8,51.3c-9.2,0-18.6-10.2-18.6-29.2c0-30.5,23.9-58.9,47.9-58.9
		c13.9,0,18.3,21.4,18.3,37.8c0,90.3-96.5,98.6-96.5,151.5c0,2.4,0.5,3.7,2.4,3.7c1.9,0,3.5-30.3,22.9-30.3
		c11.4,0,12.9,34.4,39.3,34.4c23.5,0,42-63,42-65.4l-1.6-1.2C296.5,159.2,288.9,191.8,264.1,191.8z"/>
</g>
<rect x="607" y="226" width="24" height="24"/>
<g>
</g>
<g>
</g>
<g>
</g>
<g>
</g>
<g>
</g>
<g>
</g>
<g>
</g>
<g>
</g>
<g>
</g>
<g>
</g>
<g>
</g>
<g>
</g>
<g>
</g>
<g>
</g>
<g>
</g>
</svg>
