<?xml version="1.0" encoding="utf-8"?>
<!-- Generator: Adobe Illustrator 17.1.0, SVG Export Plug-In . SVG Version: 6.00 Build 0)  -->
<!DOCTYPE svg PUBLIC "-//W3C//DTD SVG 1.1//EN" "http://www.w3.org/Graphics/SVG/1.1/DTD/svg11.dtd" [
	<!ENTITY st0 "fill:#FDCA4F;">
	<!ENTITY st1 "fill:#555;">
]>
<svg version="1.1" id="Layer_1" xmlns="http://www.w3.org/2000/svg" xmlns:xlink="http://www.w3.org/1999/xlink" x="0px" y="0px"
	 viewBox="0 0 300 77.1" style="enable-background:new 0 0 300 77.1;" xml:space="preserve">
<g>
	<g>
		<path style="&st0;" d="M120.7-47"/>
		<path style="&st0;" d="M120.7,119.2"/>
	</g>
	<g>
		<g>
			<path style="&st1;" d="M181.1,32.4c3.7-7.3,8.5-11.6,14.4-11.6c5.9,0,9,5,9,12c0,19.2-14,29.3-27.8,29.3c-4.2,0-8.5-1-12.2-3
				l4.9-39.1c0.4-2.8,0.5-5.9,0.8-8.6c-2.1-0.6-4.4-1-6.3-1.1V3.8l20.6-1.2c-0.1,4.4-1,14.8-1.8,20.3L181.1,32.4z M178.1,55.1
				c7.2-0.6,11.8-7.6,11.8-18.3c0-1.8-0.4-3.6-1-5c-5.1,2.8-9.3,11.6-10.6,21.6L178.1,55.1z"/>
		</g>
		<g>
			<path style="&st1;" d="M225.2,20.9c0.6,2.3,0.8,4.7,0.8,7.3c0,2.2-0.2,4.5-0.5,6.6c4.4-11.2,8.7-14.2,13.4-14.2
				c1.1,0,2.1,0.2,2.9,0.4l-1.8,15.2c-3.1,0-6.3,0.1-9.6,0.5c-3.4,4.4-5.7,13.1-7.3,24.9h-13.5l3-23.5c0.4-2.8,0.6-5.9,0.8-8.6
				c-1.8-0.5-3.8-0.8-5.7-1v-6.4L225.2,20.9z"/>
		</g>
		<g>
			<path style="&st1;" d="M250.4,44.3l1.5-10.7c0.2-1.1,0.4-2.5,0.5-4.1c-1.8-0.5-3.9-0.8-5.7-1v-6.4l20.6-1.1l-2.6,19.6
				c-0.4,3.1-0.8,6.1-0.8,9.9c2.5-1.3,4.4-3.5,6.7-6.4l3.2,2.3c-3.7,7.3-9.9,15.8-17.3,15.8c-4.1,0-6.8-2.8-6.8-9.4
				C249.6,50.5,250,47.5,250.4,44.3z M260.4,15.8c-4.4,0-8-3.5-8-8c0-4.3,3.5-7.8,8-7.8c4.3,0,7.7,3.5,7.7,7.8
				C268.1,12.3,264.6,15.8,260.4,15.8z"/>
		</g>
		<g>
			<path style="&st1;" d="M314.7,13c0.7,1.2,1,2.4,1,3.4c0,4.5-5.8,7-10,8.6c1.7,1.8,2.6,4.2,2.6,6.9c0,13.1-16.8,14.1-16.8,16.7
				c0,2.8,17.3,0.8,17.3,12.2c0,9.1-9.6,16.3-22.2,16.3c-12.3,0-17.7-3.8-17.7-9.9c0-4.2,2.9-7.2,9.5-9.9c-0.2-0.7-0.4-1.5-0.4-2.3
				c0-2.9,2.3-5.2,7-7.7c-6.3-0.4-10.4-4.4-10.4-10.7c0-8.9,8.5-15.7,19.1-15.7c3.1,0,5.7,0.5,7.8,1.4c1.8-2.6,3.4-5.4,4.5-9.2
				H314.7z M282,60.9c-1.1,1-1.8,2.1-1.8,3.6c0,3.1,2.9,5.5,8.6,5.5c1.8,0,3.8-0.2,6.1-0.7c0.6-0.6,1-1.5,1-2.3
				C295.9,63.8,287.3,63.8,282,60.9z M292.3,26.9c-2.6,1.3-4,4.4-4,8.3c0,3.7,1.2,6,3.7,6.7c2.4-2.1,3.5-5.1,3.5-8.8
				C295.6,29.8,294.6,27.4,292.3,26.9z"/>
		</g>
	</g>
	<g>
		<circle style="&st0;" cx="204.5" cy="32.8" r="0.5"/>
	</g>
	<g>
		<circle style="&st0;" cx="195.5" cy="20.8" r="0.5"/>
	</g>
	<g>
		<circle style="&st0;" cx="181.1" cy="32.4" r="0.5"/>
	</g>
	<g>
		<circle style="&st0;" cx="184.5" cy="2.7" r="0.5"/>
	</g>
	<g>
		<circle style="&st0;" cx="163.8" cy="3.8" r="0.5"/>
	</g>
	<g>
		<circle style="&st0;" cx="163.8" cy="10.2" r="0.5"/>
	</g>
	<g>
		<circle style="&st0;" cx="170.2" cy="11.4" r="0.5"/>
	</g>
	<g>
		<circle style="&st0;" cx="164.5" cy="59.1" r="0.5"/>
	</g>
	<g>
		<circle style="&st0;" cx="178.1" cy="55.1" r="0.5"/>
	</g>
	<g>
		<circle style="&st0;" cx="189" cy="31.8" r="0.5"/>
	</g>
	<g>
		<circle style="&st0;" cx="176.8" cy="62.1" r="0.5"/>
	</g>
	<g>
		<circle style="&st0;" cx="169.4" cy="20" r="0.5"/>
	</g>
	<g>
		<circle style="&st0;" cx="204.5" cy="25.8" r="0.2"/>
	</g>
	<g>
		<circle style="&st0;" cx="204.5" cy="52" r="0.2"/>
	</g>
	<g>
		<rect x="147.8" y="22" style="&st0;" width="152.2" height="0.2"/>
		<rect x="79.6" y="2.5" style="&st0;" width="220.4" height="0.2"/>
	</g>
	<g>
		<rect x="22.7" y="61.4" style="&st0;" width="277.3" height="0.2"/>
	</g>
	<g>
		<rect x="204.4" y="25.8" style="&st0;" width="0.2" height="26.1"/>
	</g>
</g>
<g>
</g>
<g>
</g>
<g>
</g>
<g>
</g>
<g>
</g>
<g>
</g>
</svg>
