<?xml version="1.0" encoding="utf-8"?>
<!-- Generator: Adobe Illustrator 17.1.0, SVG Export Plug-In . SVG Version: 6.00 Build 0)  -->
<!DOCTYPE svg PUBLIC "-//W3C//DTD SVG 1.1//EN" "http://www.w3.org/Graphics/SVG/1.1/DTD/svg11.dtd" [
	<!ENTITY st0 "fill:none;">
	<!ENTITY st1 "fill:#A6A08E;">
	<!ENTITY st2 "fill:#FFFFFF;">
]>
<svg version="1.1" id="Layer_1" xmlns="http://www.w3.org/2000/svg" xmlns:xlink="http://www.w3.org/1999/xlink" x="0px" y="0px"
	 viewBox="0 0 300 200" style="enable-background:new 0 0 300 200;" xml:space="preserve">
<path style="&st0;" d="M232.5,0h6.3c-0.3-1.7-0.6-3.4-1.1-4.9C235.9-3.8,234.1-2.1,232.5,0z"/>
<path style="&st1;" d="M223.3,0h-2c-0.1,2.2-0.3,4.5-0.5,6.7C221.5,4.4,222.4,2.2,223.3,0z"/>
<path style="&st1;" d="M169.7,0h-15.4c2.1,10.2,4,21.1,5.7,32.1C165.8,19.5,168.8,9.6,169.7,0z"/>
<path style="&st1;" d="M294,0c-2.1,4.9-3.4,10.5-4,15.8c4-2,7.4-4.4,10-6.9V0H294z"/>
<path style="&st1;" d="M119.6,181.3c0-3.4-0.3-6.5-0.8-9.1c-6.3,4-12,14.5-16.2,27.8h14.9C118.8,194.6,119.6,188.3,119.6,181.3z"/>
<path style="&st1;" d="M300,44.8V20.7c-3.3,1.5-6.8,2.9-10.5,4.1C289.5,36.1,293.1,43.6,300,44.8z"/>
<path style="&st1;" d="M216.5,48.6l-0.3,2.1C230,47.6,239.3,28,239.3,6.8c0-2.4-0.2-4.7-0.5-6.8h-6.3
	C224.4,10.3,218.2,31,216.5,48.6z"/>
<path style="&st1;" d="M292.4,161.6c-6.5,4.1-9.6,11.8-9.6,21.1c0,7,2.1,11.9,8.2,11.9c0.7,0,1.1,0,1.8-0.2
	c4.4-6.5,4.9-14.4,4.9-21.4C297.6,167,296,162.7,292.4,161.6z"/>
<path style="&st1;" d="M260.3,182.8c0-17.8,14.7-32.3,34.8-32.3c1.7,0,3.4,0.1,5,0.4V60.1c-3.2,1.1-6.6,1.7-10,1.7
	c-18.5,0-24.5-15.3-24.5-30.4c0-11.3,2.7-22.2,7.4-31.5h-10.4c-2.2,36.4-26.6,60.7-47.3,60.7l-1.8,17c2.9,2.1,5.9,3.3,8.8,3.7v10.1
	h-40.7V81.4c3.1-0.5,6.7-1.5,9.5-3.6l7.5-65.6c0.5-4.1,0.9-8,1.1-12.2h-15.3c-3.3,15.1-12,33.1-21.3,48.9
	c-20.7,35.4-27.4,43.3-39.2,43.3c-5.6,0-8.2-1.5-11.3-4.1l1.5-16.3c10.8,0,16.7-0.2,23-1c2.1-2.1,4.1-4.4,6-7
	c-3.9-20.6-8.7-43.4-13.3-63.8h-24.1c-2.3,17.2-4.8,33.2-4.8,43.7c4.9-3.1,9.3-8.5,13.6-15l5.6,3.3c-10.9,23.5-19.6,29.9-29.4,29.9
	c-5.4,0-13.6-2.8-13.6-15.8c0-9.6,3.3-27.6,6-46H0v200h77.9l5.6-49.7c1-8.7,1.5-16.3,1.5-22.4c-2.8-1.3-6.2-2-10.3-2.3v-11.8
	l34.9-2.3c0,10.3-1,25.3-2.6,36.7l-4.6,31.8c10.4-25.3,20.1-30,28.1-30c8.8,0,12.4,10,12.4,18.9c0,11.5-1.8,21.9-5.1,30.9h19.3
	l1.3-10.8c0.8-6.9,1.5-13.9,1.5-22.7c-2.6-1-5.7-1.6-9-1.8v-11.8l28.7-2.3c0.8,3.3,1.1,7.7,1.1,12.2c0,8-1.1,16.8-1.6,23.2
	c10-30.2,16.8-35.3,25.3-35.3c1.6,0,3.4,0.3,3.9,0.5l-2.8,28.9c-1.6-0.2-3.3-0.3-5.1-0.3c-3.1,0-6.2,0.3-9.8,1.3
	c-3.4,4.8-6.2,11.2-8.6,18.8h38.1l3.6-25.2c0.2-1.8,0.7-4.7,0.8-8.3c-2.6-0.8-5.6-1.5-9.1-1.8v-11.6l34-2.3l-6.5,49.2h24.6
	C262.6,196.1,260.3,189.9,260.3,182.8z M238,138.7c-7.7,0-13.9-6.5-13.9-14.7c0-8,6.2-14.4,13.9-14.4c7.5,0,13.5,6.4,13.5,14.4
	C251.6,132.2,245.5,138.7,238,138.7z"/>
<path style="&st2;" d="M90.7,61.8c9.8,0,18.4-6.4,29.4-29.9l-5.6-3.3c-4.2,6.5-8.7,11.9-13.6,15c0-10.5,2.5-26.5,4.8-43.7H83.1
	c-2.7,18.4-6,36.4-6,46C77.1,59.1,85.3,61.8,90.7,61.8z"/>
<path style="&st2;" d="M143.1,63.8c-2,2.6-3.9,4.9-6,7c-6.4,0.8-12.2,1-23,1l-1.5,16.3c3.1,2.6,5.7,4.1,11.3,4.1
	c11.8,0,18.5-7.8,39.2-43.3c9.2-15.8,18-33.8,21.3-48.9h-14.6c-0.9,9.6-3.9,19.5-9.6,32.1c-1.7-11-3.6-21.9-5.7-32.1h-24.5
	C134.4,20.4,139.2,43.1,143.1,63.8z"/>
<path style="&st2;" d="M191,77.8c-2.8,2.1-6.4,3.1-9.5,3.6v10.1h40.7V81.4c-2.9-0.5-5.9-1.6-8.8-3.7l1.8-17
	c20.7,0,45.2-24.3,47.3-60.7h-23.7c0.3,2.1,0.5,4.4,0.5,6.8c0,21.2-9.3,40.8-23.2,43.9l0.3-2.1c1.8-17.6,8-38.3,16-48.6h-9.2
	c-0.9,2.2-1.7,4.4-2.5,6.7c0.2-2.2,0.4-4.4,0.5-6.7h-21.6c-0.3,4.2-0.7,8.1-1.1,12.2L191,77.8z"/>
<path style="&st2;" d="M290,61.8c3.4,0,6.8-0.6,10-1.7V44.8c-6.9-1.3-10.5-8.7-10.5-20.1c3.7-1.2,7.2-2.6,10.5-4.1V8.9
	c-2.7,2.5-6,4.9-10,6.9c0.6-5.3,1.9-10.8,4-15.8h-21.1c-4.7,9.2-7.4,20.1-7.4,31.5C265.5,46.5,271.5,61.8,290,61.8z"/>
<path style="&st2;" d="M130.5,150.2c-8,0-17.6,4.7-28.1,30l4.6-31.8c1.6-11.4,2.6-26.4,2.6-36.7l-34.9,2.3v11.8
	c4.1,0.3,7.5,1,10.3,2.3c0,6-0.5,13.7-1.5,22.4L77.9,200h24.6c4.2-13.3,9.9-23.8,16.2-27.8c0.5,2.6,0.8,5.7,0.8,9.1
	c0,7-0.8,13.2-2.1,18.7h20.4c3.2-9,5.1-19.4,5.1-30.9C142.9,160.1,139.3,150.2,130.5,150.2z"/>
<path style="&st2;" d="M200.6,179.9c1.8,0,3.4,0.2,5.1,0.3l2.8-28.9c-0.5-0.2-2.3-0.5-3.9-0.5c-8.5,0-15.3,5.1-25.3,35.3
	c0.5-6.4,1.6-15.2,1.6-23.2c0-4.6-0.3-9-1.1-12.2l-28.7,2.3v11.8c3.3,0.2,6.4,0.8,9,1.8c0,8.8-0.7,15.8-1.5,22.7l-1.3,10.8h25
	c2.4-7.6,5.2-14.1,8.6-18.8C194.4,180.2,197.5,179.9,200.6,179.9z"/>
<path style="&st2;" d="M215.7,153.1v11.6c3.6,0.3,6.5,1,9.1,1.8c-0.2,3.6-0.7,6.5-0.8,8.3l-3.6,25.2h22.8l6.5-49.2L215.7,153.1z"/>
<path style="&st2;" d="M238,109.7c-7.7,0-13.9,6.4-13.9,14.4c0,8.2,6.2,14.7,13.9,14.7c7.5,0,13.5-6.5,13.5-14.7
	C251.6,116,245.5,109.7,238,109.7z"/>
<path style="&st2;" d="M300,150.8c-1.6-0.2-3.2-0.4-5-0.4c-20.1,0-34.8,14.5-34.8,32.3c0,7.1,2.4,13.3,7.5,17.2H300V150.8z
	 M292.7,194.4c-0.7,0.2-1.1,0.2-1.8,0.2c-6,0-8.2-4.9-8.2-11.9c0-9.3,3.1-17,9.6-21.1c3.6,1.1,5.2,5.4,5.2,11.4
	C297.6,180,297.2,187.9,292.7,194.4z"/>
<g>
</g>
<g>
</g>
<g>
</g>
<g>
</g>
<g>
</g>
<g>
</g>
</svg>
